<?xml version="1.0" encoding="utf-8" ?><svg xmlns="http://www.w3.org/2000/svg" xmlns:xlink="http://www.w3.org/1999/xlink" width="1024" height="1024" viewBox="0 0 1024 1024"><path d="M359.763 333.43C378.349 337.212 397.232 340.263 415.95 343.378C439.409 347.283 464.884 350.034 486.189 361.308C496.286 366.651 504.881 374.388 512.778 382.56C518.703 375.226 524.971 369.316 533.069 364.394C554.021 351.661 579.561 348.225 603.339 344.358C617.072 342.174 630.792 339.909 644.498 337.563C650.76 336.478 657.26 335.721 663.41 334.166C664.418 344.23 666.676 373.492 669.4 381.672C678.556 384.277 687.84 386.549 697.064 388.906C696.342 380.286 694.778 371.761 694.043 363.178C716.091 369.688 738.076 376.412 759.993 383.349C764.689 411.688 770.53 439.913 776.086 468.1C783.11 503.179 789.894 538.306 796.439 573.477L809.034 640.811C811.148 652.319 812.684 665.994 816.076 677.015C808.576 675.793 796.676 677.027 788.746 677.223L732.831 678.49L612.74 681.181C593.256 681.656 573.38 681.137 553.969 682.824C548.087 683.335 542.74 685.924 537.244 687.88C528.859 690.865 520.494 692.491 511.576 692.555C503.7 692.612 495.659 691.53 488.21 688.909C480.996 686.372 474.772 682.767 466.935 682.351C454.357 681.683 441.626 682.036 429.023 681.758C396.636 680.874 364.245 680.178 331.85 679.669L246.478 677.847C233.694 677.584 220.792 676.56 208.01 676.954C212.023 649.974 218.391 623.237 223.485 596.429C237.036 525.1 251.481 453.832 263.78 382.279C285.89 376.466 307.467 368.89 329.379 362.39C328.731 366.824 325.567 386.685 326.401 389.323C335.193 386.152 344.463 383.787 353.421 381.075C355.213 377.321 358.139 341.561 359.763 333.43Z"/><path d="M263.78 382.279C285.89 376.466 307.467 368.89 329.379 362.39C328.731 366.824 325.567 386.685 326.401 389.323C325.926 389.971 325.731 390.432 325.597 391.229C320.973 418.638 317.732 446.445 314.051 474.004C308.088 520.188 301.651 566.309 294.739 612.361C307.131 613.746 319.614 614.265 332.016 615.651C380.491 621.066 429.22 628.865 475.398 645.016C487.145 649.124 498.524 654.003 509.917 658.988C518.578 656.752 527.134 652.852 535.492 649.662C546.797 645.342 558.256 641.437 569.846 637.954C621.053 622.647 675.386 615.589 728.645 612.922C727.635 601.865 725.659 590.804 723.978 579.83L717.046 533.069L697.064 388.906C696.342 380.286 694.778 371.761 694.043 363.178C716.091 369.688 738.076 376.412 759.993 383.349C764.689 411.688 770.53 439.913 776.086 468.1C783.11 503.179 789.894 538.306 796.439 573.477L809.034 640.811C811.148 652.319 812.684 665.994 816.076 677.015C808.576 675.793 796.676 677.027 788.746 677.223L732.831 678.49L612.74 681.181C593.256 681.656 573.38 681.137 553.969 682.824C548.087 683.335 542.74 685.924 537.244 687.88C528.859 690.865 520.494 692.491 511.576 692.555C503.7 692.612 495.659 691.53 488.21 688.909C480.996 686.372 474.772 682.767 466.935 682.351C454.357 681.683 441.626 682.036 429.023 681.758C396.636 680.874 364.245 680.178 331.85 679.669L246.478 677.847C233.694 677.584 220.792 676.56 208.01 676.954C212.023 649.974 218.391 623.237 223.485 596.429C237.036 525.1 251.481 453.832 263.78 382.279Z"/><path fill="#FEFEFE" d="M711.298 398.277C720.724 399.729 730.229 403.337 739.338 406.173C741.788 426.356 745.913 446.352 749.23 466.41L766.487 571.102C770.904 597.419 775.755 623.797 779.254 650.247C761.753 649.771 744.122 650.409 726.606 650.463L607.75 650.968C595.893 650.99 583.89 651.489 572.052 650.818C628.324 635.357 687.053 628.335 745.22 625.465C743.552 616.54 742.45 607.444 741.05 598.468C737.612 576.81 734.365 555.122 731.312 533.407L711.298 398.277Z"/><path fill="#FEFEFE" d="M309.431 397.073L310.177 397.45C310.829 399.74 310.293 402.664 310.024 405.009C308.967 414.221 307.175 423.377 305.745 432.538C304.182 442.55 302.989 452.634 301.653 462.68C297.623 492.992 293.405 523.279 289 553.539C285.878 577.448 282.465 601.318 278.763 625.144C287.969 625.983 297.231 626.114 306.46 627.031C339.523 630.166 372.438 634.694 405.119 640.603C420.245 643.478 435.223 647.157 450.215 650.66C439.375 651.743 428.322 651.186 417.443 651.002L244.948 651.001C253.408 601.042 261.376 551.002 268.851 500.887C271.693 481.422 274.64 461.973 277.691 442.54C279.556 430.22 280.937 417.673 283.72 405.526C292.176 402.373 300.753 399.553 309.431 397.073Z"/><path fill="#FEFEFE" d="M353.421 381.075C353.562 387.6 352.114 394.62 351.288 401.104L346.574 438.222L334.2 537.219C332.12 553.721 329.545 570.204 327.857 586.747C389.11 591.248 452.082 599.146 505.651 631.323C504.991 615.082 503.363 585.72 490.744 574.441C479.612 564.492 450.745 559.289 435.864 556.548C451.543 553.034 476.372 550.197 489.715 542.141C492.084 540.71 494.036 538.23 495.52 535.944C504.653 521.884 508.791 465.262 512.036 445.171C514.055 454.341 514.944 463.748 516.14 473.051C517.465 482.979 518.869 492.896 520.355 502.801C521.53 511.014 522.302 519.634 525.006 527.504C526.75 532.579 529.744 538.434 534.384 541.383C546.606 549.149 574.376 553.435 588.799 556.014C571.3 561.15 537.333 563.808 528.005 580.843C520.969 593.691 520.039 616.295 518.304 630.948C526.592 626.126 534.846 621.007 543.628 617.137C578.273 601.868 623.683 594.326 661.25 589.668C672.608 588.26 684.142 587.571 695.446 585.961C686.607 517.911 677.324 449.829 669.4 381.672C678.556 384.277 687.84 386.549 697.064 388.906L717.046 533.069L723.978 579.83C725.659 590.804 727.635 601.865 728.645 612.922C675.386 615.589 621.053 622.647 569.846 637.954C558.256 641.437 546.797 645.342 535.492 649.662C527.134 652.852 518.578 656.752 509.917 658.988C498.524 654.003 487.145 649.124 475.398 645.016C429.22 628.865 380.491 621.066 332.016 615.651C319.614 614.265 307.131 613.746 294.739 612.361C301.651 566.309 308.088 520.188 314.051 474.004C317.732 446.445 320.973 418.638 325.597 391.229C325.731 390.432 325.926 389.971 326.401 389.323C335.193 386.152 344.463 383.787 353.421 381.075Z"/><path fill="#FEFEFE" d="M423.731 381.33C427.106 384.584 429.813 407.781 434.785 415.333C442.162 426.54 462.747 429.061 475.083 431.48C464.366 435.382 452.678 436.084 442.266 441.175C430.354 447 429.106 464.447 426.851 475.857C426.425 478.014 426.053 481.195 424.685 482.921L424.149 482.396C421.969 471.327 420.339 457.791 413.886 448.271C406.034 436.687 383.487 434.275 370.345 431.522C382.219 428.395 396.974 427.647 407.496 420.983C419.245 413.54 421.146 393.909 423.731 381.33Z"/><path fill="#FEFEFE" d="M599.076 381.325C602.196 384.175 605.579 407.988 609.256 414.629C616.994 428.606 638.228 428.02 651.866 431.771L652.534 431.958C641.615 434.237 625.287 436.318 615.97 442.485C604.136 450.318 603.337 470.101 600.651 482.776L600.186 482.943C598.097 481.421 595.487 465.589 594.469 462.002C593.37 458.133 592.062 454.05 590.158 450.493C582.84 436.82 561.041 435.323 547.591 431.492C558.59 429.451 572.709 428.012 582.275 421.976C594.617 414.189 596.118 394.301 599.076 381.325Z"/><path fill="#FEFEFE" d="M633.738 505.886C636.175 508.413 638.018 523.891 641.317 529.169C646.964 538.205 659.471 539.889 669.015 542.01C661.597 544.593 653.036 544.838 646.24 549.08C637.721 554.399 636.33 570.382 634.458 579.394L633.89 580.268C631.22 577.183 630.485 560.915 625.443 553.989C619.512 545.841 608.793 544.133 599.546 542.535C606.755 540.66 615.05 539.1 621.346 534.927C630.657 528.755 631.863 515.972 633.738 505.886Z"/><path fill="#FEFEFE" d="M388.131 508.849C391.55 514.708 391.112 522.778 394.973 529.074C400.416 537.951 412.246 539.654 421.521 541.975C415.125 543.962 408.193 545.221 402.279 548.471C392.377 553.912 391.333 565.831 388.47 575.586C385.225 569.554 385.286 562.196 381.976 556.209C376.526 546.352 364.456 544.988 354.709 542.008C361.533 539.994 369.511 538.741 375.616 534.967C384.204 529.657 385.92 517.89 388.131 508.849Z"/></svg>