<?xml version="1.0" encoding="utf-8" ?><svg xmlns="http://www.w3.org/2000/svg" xmlns:xlink="http://www.w3.org/1999/xlink" width="1024" height="1024" viewBox="0 0 1024 1024"><path d="M505.566 249.089C510.069 248.853 513.605 249.348 517.803 250.977C524.666 253.64 535.105 260.525 542.099 264.287L598.443 294.016L690.616 342.343L722.077 358.614C727.081 361.252 732.405 363.74 737.122 366.843C740.791 369.256 742.22 372.082 743.866 375.988C743.458 377.24 743.014 378.48 742.535 379.707C739.677 386.962 735.259 393.908 731.472 400.724C727.532 407.981 723.657 415.274 719.848 422.601C695.912 466.528 671.495 510.192 646.603 553.585L565.602 697.322L541.107 741.4C536.105 750.466 531.247 759.879 525.701 768.63C523.763 771.689 520.997 772.999 517.805 774.391C514.545 774.516 511.537 773.812 508.508 772.665C497.38 768.453 486.898 761.691 476.383 756.121L421.081 727.275L324.238 676.875C312.734 670.828 300.585 665.43 289.37 658.918C286.274 657.119 281.955 654.764 280.553 651.282C279.239 648.019 279.716 644.401 280.974 641.22C285.65 629.392 296.559 613.385 303.055 601.697L362.287 496.471L446.568 346.638C457.78 326.178 469.153 305.806 480.688 285.526C485.862 276.266 490.448 266.671 496.046 257.65C498.755 253.284 500.723 251.141 505.566 249.089ZM530.289 646.717C531.329 650.211 531.572 654.135 532.218 657.737C533.564 665.244 536.041 672.203 539.524 678.973C551.209 657.664 563.466 636.634 575.461 615.496L633.826 512.765C648.616 486.921 662.513 460.488 677.662 434.861C671.264 432.169 665.18 428.825 659.075 425.54C652.397 434.512 645.033 442.475 636.027 449.149L569.38 565.496C555.104 590.528 538.913 617.025 526.752 642.989L530.289 646.717ZM344.564 590.701C347.878 592.219 358.205 598.413 361.253 597.942C365.952 594.555 370.002 590.121 374.228 586.159C378.058 582.569 382.129 579.254 386.224 575.972C413.43 529.582 438.742 481.995 465.303 435.225C475.544 416.842 486.155 398.667 497.129 380.712C488.842 372.828 491.633 360.762 490.098 350.427C487.927 348.345 485.394 347.266 482.936 345.628L390.329 510.105C380.648 527.419 370.858 544.671 360.96 561.861C355.507 571.49 350.428 581.31 344.564 590.701Z"/><path fill="#FEFEFE" d="M527.242 367.76L590.524 401.707C600.369 407.063 610.512 412.222 620.109 418.001C619.471 425.726 617.16 438.029 622.645 444.429C625.548 447.817 629.796 448.88 634.087 449.099C634.734 449.13 635.38 449.147 636.027 449.149L569.38 565.496C555.104 590.528 538.913 617.025 526.752 642.989C524.083 641.758 521.478 640.439 518.463 640.458C509.233 640.518 501.203 650.547 495.19 656.55C464.245 640.5 433.614 623.721 402.896 607.238C403.86 600.602 405.481 590.083 401.912 584.185C398.628 578.759 391.968 577.249 386.224 575.972C413.43 529.582 438.742 481.995 465.303 435.225C475.544 416.842 486.155 398.667 497.129 380.712C502.558 382.476 507.514 383.999 513.002 381.348C518.706 378.592 523.163 372.48 527.242 367.76Z"/><path d="M511.321 447.169C511.386 447.159 511.45 447.145 511.515 447.139C521.457 446.167 532.064 447.05 539.942 453.842C546.104 459.154 548.144 465.952 548.688 473.719C553.19 468.216 558.488 460.356 564.932 457.05C566.992 455.993 569.314 455.553 571.543 456.345C573.771 457.137 575.763 459.066 576.753 461.196C577.583 462.984 577.762 465.009 576.929 466.826C574.303 472.556 556.617 490.699 550.654 492.721C547.327 493.849 544.23 492.067 541.323 490.642C541.911 511.985 541.479 533.292 541.502 554.635C541.517 568.579 542.345 583.048 541.402 596.932C541.255 599.107 540.962 601.167 539.84 603.072C537.681 606.739 533.849 608.1 529.975 609.133C527.384 608.557 524.793 607.916 522.695 606.194C520.304 604.232 519.374 601.405 518.818 598.461C517.802 593.081 518.333 587.25 518.432 581.809C518.665 569.023 519.622 555.86 518.678 543.119C518.336 542.277 517.856 541.143 517.218 540.482C516.227 539.456 515.399 539.287 514.032 539.216C505.256 544.219 516.091 592.135 509.042 603.955C506.95 607.464 502.868 608.623 499.163 609.527C496.013 608.884 492.867 607.704 490.682 605.23C488.814 603.115 488.352 600.766 488.057 598.05C486.741 585.96 487.958 573.413 487.961 561.251C487.968 538.522 487.509 515.69 488.395 492.976C484.036 493.074 481.911 493.002 478.338 490.183C473.381 486.272 456.683 470.257 456.582 464.35C456.539 461.86 457.636 459.404 459.423 457.683C460.877 456.283 462.666 455.511 464.7 455.68C472.27 456.312 481.189 468.892 485.815 474.212C486.049 468.035 486.535 462.286 490.371 457.119C495.457 450.268 503.368 448.335 511.321 447.169Z"/><path d="M513.754 408.166C520.167 407.137 526.635 409.653 530.668 414.744C534.701 419.836 535.668 426.708 533.198 432.715C530.727 438.722 525.205 442.926 518.757 443.707C509.05 444.883 500.187 438.073 498.824 428.39C497.461 418.708 504.099 409.716 513.754 408.166Z"/><path fill="#FEFEFE" d="M533.525 292.371C535.371 294.517 533.275 306.085 533.794 309.994C535.172 320.355 539.487 329.132 545.196 337.76C535.768 342.325 525.806 347.033 518.526 354.78C514.932 358.605 511.982 363.001 507.889 366.333L507.331 366.782C506.437 362.602 507.156 357.576 506.873 353.253C506.049 340.665 500.779 330.055 494.448 319.425C511.855 313.821 521.797 306.198 533.525 292.371Z"/><path fill="#FEFEFE" d="M516.356 659.902C517.769 661.361 517.98 674.846 518.474 677.726C520.024 686.771 523.538 694.871 527.67 702.977C511.827 709.839 500.169 719.11 489.9 732.979L489.041 733.434C487.943 731.88 488.51 716.31 487.86 712.403C486.476 704.085 482.972 696.706 479.338 689.188C494.739 681.652 504.549 671.939 516.356 659.902Z"/><path fill="#FEFEFE" d="M387.595 595.861L388.007 596.031C389.265 599.204 386.721 608.925 386.978 613.192C387.555 622.786 390.609 631.042 394.207 639.833C378.409 644.96 366.901 653.849 356.026 666.204C355.37 663.044 356.559 658.831 356.619 655.497C356.85 642.873 353.559 632.675 348.372 621.333C364.6 614.697 374.563 607.435 387.595 595.861Z"/><path fill="#FEFEFE" d="M665.902 360.472C667.168 362.148 664.996 377.945 665.451 381.952C666.392 390.233 669.706 397.362 673.732 404.545C657.471 410.249 647.849 417.228 636.363 429.961L635.946 429.934C634.563 427.243 636.103 413.35 635.738 409.12C634.977 400.31 632.136 392.529 627.755 384.906C645.342 377.748 651.84 373.273 665.902 360.472Z"/><path fill="#FEFEFE" d="M383.205 261.747C385.957 264.181 387.302 272.07 388.667 275.698C396.236 295.82 411.052 311.719 429.434 322.424C403.236 337.338 393.604 358.278 383.589 385.45C381.461 380.468 379.911 375.282 377.921 370.248C372.549 356.657 364.723 343.882 353.381 334.475C348.329 330.285 342.692 326.983 337.599 322.904L337.267 322.635L338.413 322.006C361.817 309.016 375.926 287.002 383.205 261.747Z"/><path fill="#FEFEFE" d="M639.356 639.827C642.187 642.279 644.445 653.44 645.984 657.307C653.584 676.4 667.711 690.408 684.914 701.06C683.355 702.029 681.82 703.034 680.31 704.076C659.825 718.398 645.281 737.754 640.775 762.681C638.043 759.784 637.067 753.099 635.671 749.265C628.155 728.619 613.69 712.336 594.938 701.139C596.549 700.278 598.165 699.414 599.73 698.47C620.119 686.165 633.805 662.429 639.356 639.827Z"/></svg>