<?xml version="1.0" encoding="utf-8" ?><svg xmlns="http://www.w3.org/2000/svg" xmlns:xlink="http://www.w3.org/1999/xlink" width="1024" height="1024" viewBox="0 0 1024 1024"><path d="M509.868 226.214C517.773 225.341 527.431 228.036 534.499 231.471C546.404 237.378 555.449 247.806 559.614 260.426C564.018 273.269 563.07 287.344 556.984 299.482C549.974 313.201 539.374 320.545 525.019 325.206C525.582 331.488 525.65 337.806 525.222 344.099C533.705 344.217 546.095 342.632 553.835 344.52C554.037 355.25 553.846 365.988 553.923 376.721C561.856 379.194 569.902 381.22 577.814 383.818C601.657 391.646 623.745 402.911 643.524 418.418C687.186 452.513 715.389 502.661 721.845 557.681C728.856 614.487 712.931 671.744 677.596 716.772C644.747 758.354 599.726 784.952 547.55 794.162C536.924 796.037 526.287 796.175 515.622 797.431C475.578 798.057 431.794 785.228 397.865 764.122C350.995 734.415 317.672 687.482 305.079 633.438C292.454 577.842 302.309 519.51 332.496 471.147C363.641 421.41 412.856 389.799 469.51 376.733C469.587 365.844 469.578 354.955 469.484 344.066C476.368 343.896 491.486 344.606 497.313 343.376C498.86 340.58 497.622 329.44 497.473 325.796C495.365 323.577 490.481 322.509 487.626 321.03C484.865 319.574 482.253 317.851 479.828 315.886C469.402 307.428 463.132 294.889 461.77 281.605C460.416 268.008 464.642 254.445 473.481 244.025C482.745 232.909 495.68 227.541 509.868 226.214ZM396.196 559.259C400.628 544.905 406.561 530.53 415.39 518.265C409.947 517.757 404.539 517.103 399.634 514.504C392.238 509.638 386.422 503.125 384.645 494.177C382.92 485.491 384.564 476.232 389.618 468.916C394.342 462.081 401.593 457.408 409.768 455.927C418.133 454.493 427.099 456.195 434.033 461.171C441.476 466.512 445.434 474.357 446.91 483.257C447.08 484.328 447.202 485.406 447.278 486.488C459.968 479.645 472.517 474.34 486.318 470.068C480.308 453.575 471.434 438.821 454.974 431.033C446.79 427.16 436.386 424.924 427.342 426.194C421.35 426.973 415.658 428.342 410.225 431.053C393.03 439.633 372.341 462.769 360.685 478.094C353.247 487.874 352.239 494.685 354.023 506.696C356.736 524.961 367.259 539.761 381.99 550.505C386.492 553.789 391.303 556.604 396.196 559.259ZM607.139 653.961C617.716 655.865 627.134 658.582 633.473 668.019C638.013 674.777 639.116 683.454 637.402 691.326C635.659 699.33 630.954 706.525 624.021 710.969C617.099 715.406 607.976 716.64 600.01 714.754C592.229 712.912 585.424 708.256 581.157 701.465C577.697 695.958 576.535 689.942 575.852 683.57C563.238 689.729 550.967 694.549 537.492 698.527C539.797 704.076 542.213 709.582 545.447 714.663C552.976 727.642 563.883 738.735 578.703 742.646C590.896 745.838 603.858 744.059 614.742 737.702C633.428 726.686 660.648 700.12 665.963 679.147C669.365 665.72 666.368 649.168 659.243 637.382C652.235 625.789 638.446 614.146 626.783 607.185C622.92 628.175 617.322 636.115 607.139 653.961ZM650.329 464.516C645.686 466.398 640.843 468.107 636.338 470.288C640.65 479.836 642.632 489.292 638.817 499.451C636.146 506.576 630.713 512.32 623.749 515.383C619.42 517.291 614.773 518.033 610.126 518.715C618.016 531.616 623.667 544.176 627.556 558.841C642.797 553.679 657.695 537.163 664.69 523.06C669.482 513.4 672.14 501.548 668.616 491.083C666.721 485.456 656.476 466.683 650.897 464.591C650.718 464.524 650.518 464.541 650.329 464.516ZM540.554 682.28C545.144 681.378 550.03 679.294 554.306 677.391C571.62 669.685 586.405 658.217 597.006 642.405C601.281 636.028 610.715 619.412 609.925 611.57C604.881 613.165 563.116 628.045 561.637 629.38C561.29 629.692 560.836 630.729 560.626 631.126C559.259 633.693 540.837 680.734 540.554 682.28ZM563.86 538.359C579.517 544.78 596.346 552.874 612.047 558.259C602.902 530.42 585.25 507.949 558.911 494.56C552.801 491.454 546.284 488.485 539.465 487.394C546.908 504.448 554.552 522.268 563.86 538.359ZM591.358 424.212C575.038 425.986 560.374 432.712 549.967 445.711C544.081 453.064 540.177 461.544 537.673 470.584C546.786 473.043 555.413 476.11 563.99 480.056C568.247 482.016 572.57 484.866 577.006 486.271C577.822 485.69 577.589 486.057 577.838 485.268C577.925 478.048 581.472 470.435 586.659 465.5C592.957 459.507 601.602 456.968 610.175 457.376C613.893 457.553 617.932 458.283 621.533 459.221L630.048 442.747C621.479 436.05 613.067 429.621 603.738 423.995C599.624 424.007 595.458 423.885 591.358 424.212ZM460.432 537.878C465.291 530.542 481.836 496.121 483.949 488.218L483.604 487.554L483.166 487.476C455.214 496.353 433.584 513.462 420.035 539.652C418.169 543.259 413.254 553.386 413.607 557.188L414.396 557.597C423.817 553.602 433.269 549.676 442.749 545.821C448.54 543.443 455.198 541.304 460.432 537.878ZM483.134 681.758C478.682 671.059 474.362 660.306 470.174 649.502C467.526 642.647 465.465 634.974 461.651 628.7C453.635 625.868 445.548 623.239 437.588 620.251C429.441 617.194 421.276 613.561 412.789 611.574C419.719 636.556 437.641 659.131 460.088 671.855C467.458 676.032 475.15 679.01 483.134 681.758ZM515.749 307.878C532.704 305.806 544.848 290.495 543.006 273.513C541.164 256.532 526.02 244.181 509.014 245.793C497.807 246.855 488.039 253.867 483.448 264.146C478.857 274.424 480.154 286.378 486.842 295.434C493.53 304.489 504.575 309.243 515.749 307.878ZM480.332 712.742C483.209 708.341 485.586 703.738 487.875 699.009C474.038 694.579 460.515 690.023 447.784 682.9C446.407 693.092 443.458 702.949 434.841 709.421C427.963 714.588 419.007 716.526 410.549 715.214C402.35 713.929 395.006 709.418 390.151 702.686C385.238 695.821 383.279 687.274 384.712 678.955C386.079 670.928 390.635 663.796 397.343 659.181C402.982 655.329 409.554 653.348 416.332 652.813C411.474 646.416 407.314 639.819 404.07 632.45C402.626 629.171 397.396 611.753 395.766 610.934C378.432 621.478 362.323 632.314 357.314 653.306C354.019 667.117 355.958 682.493 363.458 694.624C371.98 708.408 396.473 730.749 410.948 738.712C414.509 740.672 418.245 741.995 422.208 742.888C434.593 745.728 447.601 743.39 458.222 736.415C467.502 730.446 474.464 721.965 480.332 712.742Z"/><path fill="#FEFEFE" d="M511.792 512.428C514.427 518.659 515.578 526.138 517.091 532.729C519.688 544.216 522.351 555.687 525.079 567.143C543.649 573.511 563.187 576.658 581.723 583.008C563.444 589.47 544.044 593.859 525.295 598.832C523.573 607.016 514.673 652.015 511.79 655.163L498.126 598.724C479.091 593.029 459.459 589.548 440.665 582.988C460.188 577.726 480.068 574.26 499.197 567.514C503.857 549.302 507.854 530.811 511.792 512.428Z"/><path fill="#FEFEFE" d="M683.415 517.3C685.493 518.584 686.833 522.521 687.629 524.801C700.948 562.923 700.875 615.746 683.012 652.353C674.769 634.088 666.826 619.881 651.171 606.695L643.027 600.044C650.303 596.535 658.398 594.454 666.102 592.089C676.297 588.897 686.527 585.816 696.788 582.845C681.089 580.727 657.686 572.678 642.429 567.663C663.991 552.549 673.835 541.951 683.415 517.3Z"/><path fill="#FEFEFE" d="M527.101 715.99C530.711 718.748 532.735 724.259 535.363 727.971C545.401 742.15 559.168 751.173 574.939 757.826C567.511 761.726 558.749 763.817 550.582 765.539C519.175 772.16 487.857 770.404 457.248 761.036C454.763 760.206 452.373 759.107 449.967 758.071C472.525 746.544 482.021 738.681 495.74 717.28C502.775 733.1 506.889 750.516 511.518 767.15C514.977 749.917 520.996 732.444 527.101 715.99Z"/><path fill="#FEFEFE" d="M501.28 399.704C525.688 398.006 552.694 401.117 575.009 411.441L574.507 411.598C551.818 418.854 539.538 431.773 528.874 452.394C526.329 446.868 524.716 440.642 522.901 434.834C520.358 426.656 517.737 418.503 515.038 410.375C514.156 407.858 513.038 405.438 511.962 402.999C504.527 418.335 500.691 436.072 495.411 452.269L495.131 451.69C484.18 429.423 468.599 419.515 445.842 411.672C464.137 404.967 481.883 401.275 501.28 399.704Z"/><path fill="#FEFEFE" d="M326.833 585.458C336.556 588.015 346.229 590.792 355.926 593.448C364.767 595.871 373.712 598.099 382.284 601.373C371.201 609.094 361.149 616.073 352.877 626.948C346.803 635.78 343.894 645.159 341.1 655.374C332.453 632.198 327.949 610.169 326.833 585.458Z"/><path fill="#FEFEFE" d="M339.467 517.847C342.077 519.656 345.983 531.319 347.721 534.724C349.22 537.698 350.975 540.537 352.968 543.206C360.773 553.828 370.383 561.715 381.068 569.239C374.224 570.794 367.399 572.434 360.596 574.158C349.348 577.003 338.039 579.598 326.677 581.942C327.639 559.541 331.091 538.715 339.467 517.847Z"/><path fill="#FEFEFE" d="M603.816 669.24C609.518 668.025 615.434 669.966 619.308 674.322C623.182 678.679 624.419 684.781 622.546 690.302C620.673 695.823 615.979 699.913 610.254 701.014C601.524 702.692 593.072 697.026 591.306 688.313C589.541 679.601 595.122 671.092 603.816 669.24Z"/><path fill="#FEFEFE" d="M607.573 471.773C616.432 471.064 624.196 477.655 624.933 486.512C625.671 495.369 619.104 503.153 610.249 503.918C601.355 504.686 593.529 498.084 592.789 489.188C592.048 480.292 598.675 472.487 607.573 471.773Z"/><path fill="#FEFEFE" d="M412.122 668.766C420.743 666.668 429.434 671.952 431.54 680.571C433.646 689.19 428.371 697.886 419.754 700.001C411.125 702.119 402.414 696.835 400.305 688.203C398.195 679.572 403.488 670.866 412.122 668.766Z"/><path fill="#FEFEFE" d="M415.163 471.258C423.915 470.848 431.382 477.524 431.95 486.267C432.518 495.011 425.977 502.597 417.246 503.323C411.456 503.804 405.857 501.122 402.603 496.309C399.349 491.496 398.947 485.301 401.551 480.107C404.155 474.913 409.36 471.53 415.163 471.258Z"/></svg>