<?xml version="1.0" encoding="utf-8" ?><svg xmlns="http://www.w3.org/2000/svg" xmlns:xlink="http://www.w3.org/1999/xlink" width="1024" height="1024" viewBox="0 0 1024 1024"><path d="M505.668 240.198C506.249 240.092 506.311 240.07 506.995 240.011C527.244 238.252 549.235 246.387 564.262 259.839C571.783 266.667 578.067 274.743 582.838 283.711C599.131 314.638 586.287 342.228 596.917 372.129C604.222 392.678 622.318 403.616 631.836 422.342C636.801 432.109 635.318 441.338 637.331 451.568C638.061 455.276 639.496 458.637 641.048 462.061C651.233 484.732 661.3 507.456 671.248 530.233C677.139 543.479 683.919 556.733 688.85 570.36C690.403 574.653 691.903 579.273 692.089 583.872C692.27 588.351 691.462 591.315 688.303 594.576C686.413 596.527 684.222 598.122 681.488 598.555C676.7 599.312 671.297 598.874 666.438 598.869L640.005 598.875L561.159 598.862C547.692 598.854 534.076 598.414 520.624 598.899L403.998 598.856L367.437 598.92C360.694 598.947 353.673 599.359 346.962 598.803C343.734 598.536 340.7 597.799 338.057 595.845C335.009 593.591 332.697 589.849 332.3 586.06C331.944 582.663 332.537 579.213 333.521 575.963C337.126 564.057 342.858 552.562 347.908 541.215C354.505 526.207 360.979 511.146 367.33 496.032C370.886 487.74 374.876 479.564 378.049 471.121C384.447 454.098 387.017 435.218 395.057 418.915C403.392 402.012 419.221 391.854 425.478 373.165C430.892 356.991 429.945 341.051 430.715 324.37C431.596 305.284 437.854 286.27 449.66 271.159C464.16 252.598 482.49 243.029 505.668 240.198Z"/><path fill="#FEFEFE" d="M511.466 277.742C515.616 279.817 523.091 298.558 526.029 303.47C537.08 303.686 548.133 303.771 559.185 303.725C561.414 326.837 560.444 352.085 546.341 371.551C538.249 382.72 526.878 390.734 513.121 392.89C512.398 392.94 512.345 392.956 511.499 392.94C500.039 392.724 489.02 385.167 481.499 376.989C462.975 356.846 463.881 329.435 465.08 303.894C476.19 303.896 487.3 303.807 498.409 303.628C502.596 294.917 506.95 286.287 511.466 277.742Z"/><path d="M530.992 314.576C534.126 314.419 537.475 314.413 540.36 315.814C542.202 316.707 544.262 318.452 544.883 320.44C542.965 323.905 532.396 320.463 528.877 324.961C528.069 325.995 527.876 327.561 528.105 328.834C528.326 330.055 528.846 331.013 530.007 331.583C534.782 333.933 541.552 328.458 546.053 327.452C547.089 327.22 547.281 327.332 548.134 327.844L548.183 329.634C547.919 330.325 547.635 331.008 547.331 331.683C545.668 335.309 542.728 338.348 538.932 339.705C534.605 341.252 529.596 340.594 525.563 338.508C522.098 336.716 519.096 333.731 517.952 329.933C517.095 327.089 517.371 324.091 518.902 321.529C521.471 317.228 526.439 315.741 530.992 314.576Z"/><path d="M485.772 314.543C490.757 314.421 495.527 314.443 499.848 317.35C502.735 319.292 504.706 322.304 505.176 325.769C505.627 329.095 504.503 332.453 502.354 335C499.763 338.032 496.07 339.905 492.093 340.205C486.486 340.639 482.154 338.111 478.118 334.555C477.741 333.998 477.361 333.44 477.011 332.865C476.188 331.514 475.782 330.552 476.139 328.996L477.104 328.463C480.943 328.604 484.413 330.466 488.084 331.396C490.024 331.887 492.501 332.211 494.276 331.063C495.274 330.417 495.825 329.471 495.931 328.269C496.07 326.691 495.321 325.447 494.234 324.387C490.136 320.387 481.873 321.324 476.523 321.376C479.369 318.277 481.905 316.251 485.772 314.543Z"/><path d="M511.094 360.616C512.922 360.612 515.061 360.848 516.85 361.249C518.858 361.698 521.042 362.793 522.011 364.711C522.546 365.77 522.481 366.866 522.073 367.953C520.892 371.101 517.242 372.226 514.411 373.384C512.208 373.341 510.062 373.256 507.961 372.52C505.709 371.731 503.237 370.064 502.456 367.691C502.014 366.349 502.314 365.194 503.025 364.019C504.577 361.452 508.43 361.076 511.094 360.616Z"/><path fill="#FEFEFE" d="M620.303 453.736C621.485 453.805 621.933 453.648 622.774 454.571C625.649 457.726 630.834 472.889 632.924 477.664L666.048 552.928C668.369 558.176 679.39 579.263 678.936 583.44C678.866 584.079 678.859 584.091 678.308 584.434C676.28 585.7 673.193 585.777 670.838 585.908C651.114 587.002 631.068 586.033 611.314 585.955C601.648 585.917 561.776 586.961 554.848 584.633C553.35 584.131 552.015 583.251 551.443 581.703C550.644 579.542 551.516 577.541 552.231 575.504C559.668 572.188 575.65 573.955 584.138 574.12L583.928 568.325C576.247 568.416 549.183 569.988 544.454 566.486C543.399 565.704 542.559 564.069 542.424 562.773C542.247 561.07 542.613 559.45 543.816 558.174C545.001 556.918 546.256 556.628 547.893 556.425C556.673 555.337 565.911 556.402 574.748 556.473L627.31 556.49C622.004 543.877 616.523 531.231 610.77 518.814C606.623 509.866 600.138 500.164 598.201 490.542C596.126 480.227 597.556 464.672 597.879 454.014C605.355 454.075 612.831 453.982 620.303 453.736Z"/><path fill="#FEFEFE" d="M400.903 453.067C409.257 452.905 417.633 453.02 425.989 453.019C425.979 464.091 427.232 479.721 425.337 490.292C423.676 499.562 417.434 509.291 413.344 517.807C407.039 530.83 400.813 543.893 394.669 556.993C406.333 557.12 475.931 555.329 482.886 558.55C483.792 559.481 484.299 560.182 484.347 561.538C484.401 563.07 483.758 564.982 482.508 565.939C478.392 569.091 448.263 567.549 441.616 567.494C441.526 569.677 441.23 571.847 440.98 574.016L467.066 573.896C469.038 574.171 471.509 574.939 472.773 576.591C473.506 577.55 473.756 578.899 473.472 580.065C473.087 581.649 471.872 583.058 470.551 583.957C469.149 584.912 467.353 585.545 465.665 585.699C462.822 585.957 459.798 585.55 456.93 585.52L436.31 585.463L378.022 585.499C368.383 585.526 357.033 587.038 347.655 584.857C346.316 584.545 346.265 584.44 345.574 583.325C345.374 573.673 393.914 470.944 400.903 453.067Z"/><path fill="#FEFEFE" d="M511.687 429.39C512.487 430.265 512.607 431.293 512.824 432.451C514.661 442.217 514.761 449.021 518.116 459.065C520.555 466.368 524.094 473.138 529.12 478.999C542.074 494.107 559.487 496.987 578.353 498.387C563.889 500.833 549.726 503.204 537.763 512.385C517.867 527.656 515.11 550.433 511.931 573.544L510.651 562.475C508.819 550.096 505.819 537.667 498.347 527.379C483.738 507.262 457.445 502.18 434.445 498.412C454.126 496.908 475.219 493.67 490.892 480.642C506.448 467.711 509.981 448.54 511.687 429.39Z"/><path d="M388.907 618.775C390.952 619.009 393.306 618.748 395.399 618.785C402.136 618.909 408.874 618.96 415.612 618.938L473.08 618.982L606.238 619.035C629.802 618.935 653.365 618.956 676.928 619.099C687.384 641.859 696.798 665.28 706.729 688.284C720.526 720.244 734.781 752.153 747.941 784.369C736.669 783.723 724.879 784.507 713.557 784.491L633.75 784.392L396.019 784.376L320.115 784.405C304.821 784.427 289.313 784.985 274.046 784.065C281.098 767.446 289.24 751.181 296.68 734.716L349.184 618.93C362.414 618.591 375.669 619.07 388.907 618.775Z"/><path fill="#FEFEFE" d="M644.127 714.206C656.833 712.489 668.546 721.34 670.363 734.032C672.18 746.724 663.422 758.506 650.745 760.424C637.925 762.364 625.981 753.485 624.143 740.65C622.305 727.816 631.278 715.942 644.127 714.206Z"/><path d="M644.225 729.497C647.343 729.381 650.034 729.598 652.412 731.866C653.726 733.119 654.382 734.605 654.36 736.43C654.326 739.215 652.24 741.035 650.311 742.71C649.199 743.023 648.019 743.399 646.858 743.444C645.246 743.507 643.59 742.927 642.405 741.824C641.16 740.664 640.604 739.097 640.532 737.422C640.387 734.065 641.972 731.794 644.225 729.497Z"/><path fill="#FEFEFE" d="M554.688 713.725C567.468 712.762 578.615 722.331 579.597 735.11C580.58 747.889 571.028 759.05 558.251 760.053C545.445 761.058 534.254 751.48 533.269 738.673C532.284 725.866 541.879 714.69 554.688 713.725Z"/><path d="M554.374 729.756C556.723 729.058 559.265 729.688 561.015 731.403C562.766 733.117 563.449 735.646 562.8 738.008C562.151 740.37 560.272 742.195 557.892 742.775C554.336 743.641 550.739 741.514 549.784 737.981C548.83 734.448 550.867 730.799 554.374 729.756Z"/><path fill="#FEFEFE" d="M463.43 714.218C476.079 712.203 487.968 720.819 489.99 733.467C492.012 746.115 483.402 758.009 470.756 760.038C458.099 762.068 446.194 753.45 444.171 740.793C442.147 728.135 450.772 716.235 463.43 714.218Z"/><path d="M466.01 729.749C469.564 729.121 472.953 731.497 473.575 735.052C474.196 738.607 471.814 741.991 468.258 742.606C464.711 743.22 461.337 740.845 460.718 737.3C460.098 733.754 462.466 730.376 466.01 729.749Z"/><path fill="#FEFEFE" d="M375.108 713.77C387.878 713.632 398.352 723.851 398.529 736.621C398.706 749.39 388.519 759.895 375.75 760.111C362.926 760.328 352.365 750.087 352.187 737.263C352.01 724.438 362.283 713.908 375.108 713.77Z"/><path d="M373.733 729.957C377.137 728.958 380.705 730.91 381.698 734.315C382.692 737.72 380.734 741.285 377.328 742.273C373.929 743.259 370.374 741.307 369.382 737.91C368.391 734.512 370.338 730.954 373.733 729.957Z"/><path fill="#FEFEFE" d="M386.463 649.196C399.048 647.517 410.623 656.329 412.353 668.907C414.084 681.485 405.32 693.095 392.749 694.878C380.105 696.671 368.412 687.844 366.671 675.193C364.93 662.541 373.805 650.885 386.463 649.196Z"/><path d="M387.468 665.236C391.018 664.051 394.858 665.967 396.045 669.517C397.232 673.067 395.318 676.907 391.769 678.096C388.217 679.287 384.373 677.371 383.185 673.818C381.996 670.265 383.914 666.422 387.468 665.236Z"/><path fill="#FEFEFE" d="M550.673 649.211C563.228 647.492 574.811 656.241 576.592 668.788C578.372 681.334 569.68 692.961 557.143 694.803C544.518 696.658 532.792 687.892 530.999 675.258C529.206 662.624 538.03 650.941 550.673 649.211Z"/><path d="M552.677 664.745C556.352 664.101 559.873 666.496 560.623 670.151C561.373 673.807 559.079 677.395 555.447 678.25C553.003 678.825 550.439 678.026 548.755 676.164C547.07 674.302 546.53 671.672 547.346 669.297C548.161 666.922 550.203 665.179 552.677 664.745Z"/><path fill="#FEFEFE" d="M629.545 649.211C637.721 647.914 645.964 651.11 651.128 657.579C656.293 664.049 657.583 672.794 654.507 680.48C651.431 688.165 644.463 693.606 636.261 694.726C623.769 696.431 612.231 687.763 610.39 675.29C608.55 662.817 617.092 651.186 629.545 649.211Z"/><path d="M632.187 664.382C632.897 664.409 632.965 664.393 633.751 664.524C635.689 664.848 637.508 665.905 638.613 667.542C639.717 669.18 639.907 671.08 639.439 672.969C638.722 675.864 636.854 677.138 634.418 678.584C634.225 678.578 634.032 678.579 633.84 678.565C631.772 678.417 629.344 677.823 628.05 676.042C626.982 674.57 626.717 673.178 626.978 671.415C627.478 668.035 629.544 666.276 632.187 664.382Z"/><path fill="#FEFEFE" d="M468.112 649.216C480.785 648.317 491.779 657.879 492.648 670.554C493.516 683.229 483.928 694.201 471.251 695.039C458.616 695.874 447.69 686.326 446.824 673.693C445.959 661.061 455.481 650.111 468.112 649.216Z"/><path d="M467.033 665.262C470.603 663.943 474.569 665.745 475.925 669.301C477.28 672.857 475.519 676.842 471.976 678.233C469.653 679.146 467.017 678.741 465.075 677.171C463.134 675.602 462.184 673.111 462.589 670.647C462.994 668.183 464.691 666.127 467.033 665.262Z"/><path fill="#FEFEFE" d="M324.311 356.784C324.87 357.212 325.193 357.502 325.402 358.217C325.961 360.126 326.037 362.542 326.312 364.531C327.321 371.798 328.622 379.188 332.823 385.387C340.075 396.087 352.914 398.465 364.764 400.534C356.33 401.607 347.149 403.003 340.118 408.161C328.843 416.433 326.956 431.39 324.849 444.173C322.119 440.777 321.823 423.232 315.493 414.269C308.017 403.684 295.935 402.493 284.194 400.444C292.496 399.777 301.733 398.269 308.714 393.405C320.875 384.932 322.011 370.091 324.311 356.784Z"/></svg>